<mxfile host="app.diagrams.net" agent="Mozilla/5.0 (Windows NT 10.0; Win64; x64) AppleWebKit/537.36 (KHTML, like Gecko) Chrome/131.0.0.0 Safari/537.36 Edg/131.0.0.0" version="24.8.6" pages="2">
  <diagram name="Pagina-1" id="PSi_Gi1zfoN__synenDI">
    <mxGraphModel dx="1426" dy="755" grid="1" gridSize="10" guides="1" tooltips="1" connect="1" arrows="1" fold="1" page="1" pageScale="1" pageWidth="1169" pageHeight="827" math="0" shadow="0">
      <root>
        <mxCell id="0" />
        <mxCell id="1" parent="0" />
        <mxCell id="AHLWojrZYEl3FPHkwdUt-1" value="" style="endArrow=none;html=1;rounded=0;strokeWidth=2;strokeColor=#0000FF;" edge="1" parent="1">
          <mxGeometry width="50" height="50" relative="1" as="geometry">
            <mxPoint x="280" y="400" as="sourcePoint" />
            <mxPoint x="440" y="400" as="targetPoint" />
          </mxGeometry>
        </mxCell>
        <mxCell id="AHLWojrZYEl3FPHkwdUt-2" value="" style="endArrow=none;html=1;rounded=0;strokeWidth=2;strokeColor=#0000FF;" edge="1" parent="1">
          <mxGeometry width="50" height="50" relative="1" as="geometry">
            <mxPoint x="440" y="400" as="sourcePoint" />
            <mxPoint x="440" y="320" as="targetPoint" />
          </mxGeometry>
        </mxCell>
        <mxCell id="AHLWojrZYEl3FPHkwdUt-3" value="" style="endArrow=none;html=1;rounded=0;strokeWidth=2;strokeColor=#0000FF;" edge="1" parent="1">
          <mxGeometry width="50" height="50" relative="1" as="geometry">
            <mxPoint x="440" y="320" as="sourcePoint" />
            <mxPoint x="600" y="320" as="targetPoint" />
          </mxGeometry>
        </mxCell>
        <mxCell id="AHLWojrZYEl3FPHkwdUt-4" value="" style="endArrow=none;html=1;rounded=0;strokeWidth=2;strokeColor=#0000FF;" edge="1" parent="1">
          <mxGeometry width="50" height="50" relative="1" as="geometry">
            <mxPoint x="600" y="400" as="sourcePoint" />
            <mxPoint x="600" y="320" as="targetPoint" />
          </mxGeometry>
        </mxCell>
        <mxCell id="AHLWojrZYEl3FPHkwdUt-5" value="" style="endArrow=none;html=1;rounded=0;strokeWidth=2;strokeColor=#0000FF;" edge="1" parent="1">
          <mxGeometry width="50" height="50" relative="1" as="geometry">
            <mxPoint x="600" y="400" as="sourcePoint" />
            <mxPoint x="760" y="400" as="targetPoint" />
          </mxGeometry>
        </mxCell>
        <mxCell id="AHLWojrZYEl3FPHkwdUt-6" value="&lt;b&gt;not pressed&lt;/b&gt;" style="text;html=1;align=center;verticalAlign=middle;whiteSpace=wrap;rounded=0;" vertex="1" parent="1">
          <mxGeometry x="170" y="384" width="90" height="30" as="geometry" />
        </mxCell>
        <mxCell id="AHLWojrZYEl3FPHkwdUt-7" value="&lt;b&gt;pressed&lt;/b&gt;" style="text;html=1;align=center;verticalAlign=middle;whiteSpace=wrap;rounded=0;" vertex="1" parent="1">
          <mxGeometry x="170" y="300" width="90" height="30" as="geometry" />
        </mxCell>
        <mxCell id="AHLWojrZYEl3FPHkwdUt-8" value="" style="endArrow=classic;html=1;rounded=0;strokeWidth=2;strokeColor=#00AB00;" edge="1" parent="1">
          <mxGeometry width="50" height="50" relative="1" as="geometry">
            <mxPoint x="440" y="240" as="sourcePoint" />
            <mxPoint x="440" y="320" as="targetPoint" />
          </mxGeometry>
        </mxCell>
        <mxCell id="AHLWojrZYEl3FPHkwdUt-9" value="&lt;b&gt;Trigger fire on positive front (fire just pressed)&lt;/b&gt;" style="text;html=1;align=center;verticalAlign=middle;whiteSpace=wrap;rounded=0;" vertex="1" parent="1">
          <mxGeometry x="380" y="190" width="110" height="30" as="geometry" />
        </mxCell>
        <mxCell id="AHLWojrZYEl3FPHkwdUt-10" value="" style="endArrow=classic;html=1;rounded=0;" edge="1" parent="1">
          <mxGeometry width="50" height="50" relative="1" as="geometry">
            <mxPoint x="600" y="240" as="sourcePoint" />
            <mxPoint x="600" y="320" as="targetPoint" />
          </mxGeometry>
        </mxCell>
        <mxCell id="AHLWojrZYEl3FPHkwdUt-11" value="&lt;b&gt;Trigger fire on negative front (fire just released)&lt;/b&gt;" style="text;html=1;align=center;verticalAlign=middle;whiteSpace=wrap;rounded=0;" vertex="1" parent="1">
          <mxGeometry x="540" y="190" width="110" height="30" as="geometry" />
        </mxCell>
      </root>
    </mxGraphModel>
  </diagram>
  <diagram name="Pagina-2" id="ipZgGGxXdeR3rNB4dwC6">
    <mxGraphModel dx="679" dy="360" grid="1" gridSize="10" guides="1" tooltips="1" connect="1" arrows="1" fold="1" page="1" pageScale="1" pageWidth="1169" pageHeight="827" math="0" shadow="0">
      <root>
        <mxCell id="IGZz7o1t6DIv8nERqUgi-0" />
        <mxCell id="IGZz7o1t6DIv8nERqUgi-1" parent="IGZz7o1t6DIv8nERqUgi-0" />
        <mxCell id="IGZz7o1t6DIv8nERqUgi-2" value="" style="endArrow=none;html=1;rounded=0;strokeWidth=2;strokeColor=#0000FF;" edge="1" parent="IGZz7o1t6DIv8nERqUgi-1">
          <mxGeometry width="50" height="50" relative="1" as="geometry">
            <mxPoint x="280" y="400" as="sourcePoint" />
            <mxPoint x="440" y="400" as="targetPoint" />
          </mxGeometry>
        </mxCell>
        <mxCell id="IGZz7o1t6DIv8nERqUgi-3" value="" style="endArrow=none;html=1;rounded=0;strokeWidth=2;strokeColor=#0000FF;" edge="1" parent="IGZz7o1t6DIv8nERqUgi-1">
          <mxGeometry width="50" height="50" relative="1" as="geometry">
            <mxPoint x="440" y="400" as="sourcePoint" />
            <mxPoint x="440" y="320" as="targetPoint" />
          </mxGeometry>
        </mxCell>
        <mxCell id="IGZz7o1t6DIv8nERqUgi-4" value="" style="endArrow=none;html=1;rounded=0;strokeWidth=2;strokeColor=#0000FF;" edge="1" parent="IGZz7o1t6DIv8nERqUgi-1">
          <mxGeometry width="50" height="50" relative="1" as="geometry">
            <mxPoint x="440" y="320" as="sourcePoint" />
            <mxPoint x="480" y="320" as="targetPoint" />
          </mxGeometry>
        </mxCell>
        <mxCell id="IGZz7o1t6DIv8nERqUgi-5" value="" style="endArrow=none;html=1;rounded=0;strokeWidth=2;strokeColor=#0000FF;" edge="1" parent="IGZz7o1t6DIv8nERqUgi-1">
          <mxGeometry width="50" height="50" relative="1" as="geometry">
            <mxPoint x="480" y="400" as="sourcePoint" />
            <mxPoint x="480" y="320" as="targetPoint" />
          </mxGeometry>
        </mxCell>
        <mxCell id="IGZz7o1t6DIv8nERqUgi-6" value="" style="endArrow=none;html=1;rounded=0;strokeWidth=2;strokeColor=#0000FF;" edge="1" parent="IGZz7o1t6DIv8nERqUgi-1">
          <mxGeometry width="50" height="50" relative="1" as="geometry">
            <mxPoint x="480" y="400" as="sourcePoint" />
            <mxPoint x="560" y="400" as="targetPoint" />
          </mxGeometry>
        </mxCell>
        <mxCell id="IGZz7o1t6DIv8nERqUgi-7" value="&lt;b&gt;not pressed&lt;/b&gt;" style="text;html=1;align=center;verticalAlign=middle;whiteSpace=wrap;rounded=0;" vertex="1" parent="IGZz7o1t6DIv8nERqUgi-1">
          <mxGeometry x="170" y="384" width="90" height="30" as="geometry" />
        </mxCell>
        <mxCell id="IGZz7o1t6DIv8nERqUgi-8" value="&lt;b&gt;pressed&lt;/b&gt;" style="text;html=1;align=center;verticalAlign=middle;whiteSpace=wrap;rounded=0;" vertex="1" parent="IGZz7o1t6DIv8nERqUgi-1">
          <mxGeometry x="170" y="300" width="90" height="30" as="geometry" />
        </mxCell>
        <mxCell id="IGZz7o1t6DIv8nERqUgi-9" value="" style="endArrow=classic;html=1;rounded=0;strokeWidth=2;strokeColor=#00AB00;" edge="1" parent="IGZz7o1t6DIv8nERqUgi-1">
          <mxGeometry width="50" height="50" relative="1" as="geometry">
            <mxPoint x="440" y="240" as="sourcePoint" />
            <mxPoint x="440" y="320" as="targetPoint" />
          </mxGeometry>
        </mxCell>
        <mxCell id="IGZz7o1t6DIv8nERqUgi-10" value="&lt;b&gt;Trigger fire&lt;/b&gt;" style="text;html=1;align=center;verticalAlign=middle;whiteSpace=wrap;rounded=0;" vertex="1" parent="IGZz7o1t6DIv8nERqUgi-1">
          <mxGeometry x="380" y="200" width="110" height="30" as="geometry" />
        </mxCell>
        <mxCell id="xyeWlBAhefXmpZp5sQH7-0" value="" style="endArrow=none;html=1;rounded=0;strokeWidth=2;strokeColor=#0000FF;" edge="1" parent="IGZz7o1t6DIv8nERqUgi-1">
          <mxGeometry width="50" height="50" relative="1" as="geometry">
            <mxPoint x="560" y="400" as="sourcePoint" />
            <mxPoint x="560" y="320" as="targetPoint" />
          </mxGeometry>
        </mxCell>
        <mxCell id="xyeWlBAhefXmpZp5sQH7-1" value="" style="endArrow=none;html=1;rounded=0;strokeWidth=2;strokeColor=#0000FF;" edge="1" parent="IGZz7o1t6DIv8nERqUgi-1">
          <mxGeometry width="50" height="50" relative="1" as="geometry">
            <mxPoint x="560" y="320" as="sourcePoint" />
            <mxPoint x="600" y="320" as="targetPoint" />
          </mxGeometry>
        </mxCell>
        <mxCell id="xyeWlBAhefXmpZp5sQH7-2" value="" style="endArrow=none;html=1;rounded=0;strokeWidth=2;strokeColor=#0000FF;" edge="1" parent="IGZz7o1t6DIv8nERqUgi-1">
          <mxGeometry width="50" height="50" relative="1" as="geometry">
            <mxPoint x="600" y="400" as="sourcePoint" />
            <mxPoint x="600" y="320" as="targetPoint" />
          </mxGeometry>
        </mxCell>
        <mxCell id="xyeWlBAhefXmpZp5sQH7-3" value="" style="endArrow=none;html=1;rounded=0;strokeWidth=2;strokeColor=#0000FF;" edge="1" parent="IGZz7o1t6DIv8nERqUgi-1">
          <mxGeometry width="50" height="50" relative="1" as="geometry">
            <mxPoint x="600" y="398.76" as="sourcePoint" />
            <mxPoint x="760" y="398.76" as="targetPoint" />
          </mxGeometry>
        </mxCell>
        <mxCell id="xyeWlBAhefXmpZp5sQH7-4" value="" style="endArrow=classic;html=1;rounded=0;strokeWidth=2;strokeColor=#00AB00;" edge="1" parent="IGZz7o1t6DIv8nERqUgi-1">
          <mxGeometry width="50" height="50" relative="1" as="geometry">
            <mxPoint x="560" y="240" as="sourcePoint" />
            <mxPoint x="560" y="320" as="targetPoint" />
          </mxGeometry>
        </mxCell>
        <mxCell id="xyeWlBAhefXmpZp5sQH7-5" value="&lt;b&gt;Trigger fire&lt;/b&gt;" style="text;html=1;align=center;verticalAlign=middle;whiteSpace=wrap;rounded=0;" vertex="1" parent="IGZz7o1t6DIv8nERqUgi-1">
          <mxGeometry x="500" y="200" width="110" height="30" as="geometry" />
        </mxCell>
        <mxCell id="xyeWlBAhefXmpZp5sQH7-6" value="" style="endArrow=classic;startArrow=classic;html=1;rounded=0;strokeWidth=2;" edge="1" parent="IGZz7o1t6DIv8nERqUgi-1">
          <mxGeometry width="50" height="50" relative="1" as="geometry">
            <mxPoint x="480" y="330" as="sourcePoint" />
            <mxPoint x="560" y="330" as="targetPoint" />
          </mxGeometry>
        </mxCell>
        <mxCell id="xyeWlBAhefXmpZp5sQH7-7" value="&lt;b&gt;FIRE INTERVAL&lt;/b&gt;" style="text;html=1;align=center;verticalAlign=middle;whiteSpace=wrap;rounded=0;" vertex="1" parent="IGZz7o1t6DIv8nERqUgi-1">
          <mxGeometry x="470" y="330" width="110" height="30" as="geometry" />
        </mxCell>
      </root>
    </mxGraphModel>
  </diagram>
</mxfile>
